<svg xmlns="http://www.w3.org/2000/svg" viewBox="0 0 128 128">
  <defs>
    <linearGradient id="g" x1="28" y1="20" x2="100" y2="108" gradientUnits="userSpaceOnUse">
      <stop stop-color="#fff0ad"/>
      <stop offset=".42" stop-color="#d8a737"/>
      <stop offset="1" stop-color="#8c5d0c"/>
    </linearGradient>
    <radialGradient id="b" cx="50%" cy="42%" r="62%">
      <stop stop-color="#202019"/>
      <stop offset="1" stop-color="#090d0c"/>
    </radialGradient>
  </defs>
  <rect width="128" height="128" rx="30" fill="url(#b)"/>
  <circle cx="64" cy="64" r="48" fill="none" stroke="url(#g)" stroke-width="3" opacity=".9"/>
  <path d="M34 50 45 34h38l11 16-30 42L34 50Z" fill="url(#g)"/>
  <path d="m34 50 30 42 30-42M45 34l19 58 19-58M34 50h60M45 34l19 16 19-16" fill="none" stroke="#fff2b5" stroke-width="2" stroke-linejoin="round" opacity=".8"/>
  <path d="m99 31 2 6 6 2-6 2-2 6-2-6-6-2 6-2 2-6Z" fill="#ffe68a"/>
</svg>
